<?xml version="1.0" standalone="no"?>
<!DOCTYPE svg PUBLIC "-//W3C//DTD SVG 20010904//EN"
 "http://www.w3.org/TR/2001/REC-SVG-20010904/DTD/svg10.dtd">
<svg version="1.0" xmlns="http://www.w3.org/2000/svg"
 width="192.000000pt" height="192.000000pt" viewBox="0 0 192.000000 192.000000"
 preserveAspectRatio="xMidYMid meet">

<g transform="translate(0.000000,192.000000) scale(0.100000,-0.100000)"
fill="#000000" stroke="none">
<path d="M904 1741 c-27 -17 -39 -36 -58 -93 -4 -14 -16 -18 -50 -18 -25 0
-48 -4 -51 -10 -3 -5 -38 -10 -76 -10 -65 0 -73 -2 -100 -29 l-29 -29 0 -456
0 -456 29 -32 29 -33 362 0 362 0 29 33 29 32 0 455 0 454 -23 27 c-21 24 -33
28 -88 32 -35 2 -78 10 -96 18 -17 8 -47 14 -67 14 -26 0 -36 4 -36 15 0 29
-30 75 -60 90 -39 20 -68 19 -106 -4z m96 -51 c24 -24 25 -48 4 -78 -31 -44
-104 -20 -104 35 0 57 61 82 100 43z m-280 -174 c0 -31 5 -46 16 -50 9 -3 112
-6 229 -6 238 0 245 2 245 66 l0 34 48 0 c26 0 53 -5 60 -12 9 -9 12 -123 12
-452 0 -395 -2 -441 -17 -458 -15 -17 -39 -18 -351 -18 -298 0 -337 2 -354 17
-17 15 -18 43 -18 458 0 330 3 444 12 453 7 7 36 12 65 12 l53 0 0 -44z"/>
<path d="M698 1375 c-88 -50 -50 -185 52 -185 23 0 50 5 62 11 27 14 51 74 43
109 -14 62 -99 98 -157 65z m107 -40 c33 -32 31 -60 -5 -97 -25 -24 -36 -29
-58 -24 -59 14 -81 80 -40 123 29 31 72 30 103 -2z"/>
<path d="M761 1296 c-7 -8 -21 -12 -33 -8 -24 6 -21 -15 5 -32 12 -8 22 -5 42
14 14 13 25 27 25 32 0 13 -27 9 -39 -6z"/>
<path d="M900 1320 c0 -20 4 -20 178 -18 149 3 177 5 177 18 0 13 -28 15 -177
18 -174 2 -178 2 -178 -18z"/>
<path d="M900 1240 c0 -20 5 -21 123 -18 100 3 122 6 122 18 0 12 -22 15 -122
18 -118 3 -123 2 -123 -18z"/>
<path d="M704 1124 c-60 -29 -72 -104 -25 -156 25 -28 36 -33 74 -33 52 0 81
21 97 70 16 48 -8 101 -54 120 -44 19 -53 18 -92 -1z m96 -33 c33 -26 34 -86
1 -112 -30 -25 -62 -24 -95 2 -34 27 -35 71 -1 104 29 30 61 31 95 6z"/>
<path d="M760 1045 c-7 -9 -21 -13 -31 -10 -24 8 -24 -7 -1 -28 17 -16 20 -15
45 11 15 16 24 31 20 35 -10 11 -19 8 -33 -8z"/>
<path d="M907 1084 c-4 -4 -7 -13 -7 -21 0 -10 37 -13 181 -13 166 0 180 1
177 18 -3 15 -21 17 -174 20 -93 1 -173 -1 -177 -4z"/>
<path d="M907 1003 c-4 -3 -7 -12 -7 -20 0 -10 23 -13 98 -13 103 0 114 3 105
26 -4 11 -27 14 -97 14 -51 0 -96 -3 -99 -7z"/>
<path d="M676 849 c-44 -51 -30 -123 29 -154 81 -45 174 33 145 121 -15 45
-45 64 -101 64 -40 0 -51 -4 -73 -31z m108 0 c33 -15 50 -57 37 -92 -19 -51
-77 -62 -116 -22 -34 33 -33 77 1 104 30 24 43 26 78 10z"/>
<path d="M760 795 c-7 -9 -21 -13 -31 -10 -24 8 -24 -7 -1 -28 17 -16 20 -15
45 11 15 16 24 31 20 35 -10 11 -19 8 -33 -8z"/>
<path d="M903 825 c-3 -9 -1 -21 4 -26 5 -5 80 -8 179 -7 161 3 169 4 169 23
0 19 -8 20 -173 23 -150 2 -173 0 -179 -13z"/>
<path d="M904 745 c-4 -9 -5 -18 -2 -20 2 -2 58 -5 123 -6 112 -2 120 -1 120
17 0 17 -9 19 -118 22 -99 2 -118 0 -123 -13z"/>
<path d="M610 440 c-34 -34 -25 -55 43 -89 34 -17 38 -30 13 -46 -10 -6 -21
-4 -35 9 -24 22 -45 13 -31 -13 13 -25 53 -34 84 -20 52 24 41 79 -18 99 -38
12 -54 37 -30 47 8 3 26 0 40 -7 33 -18 44 -3 15 21 -30 24 -56 24 -81 -1z"/>
<path d="M1480 445 c0 -10 7 -15 18 -13 21 4 19 22 -2 26 -10 2 -16 -3 -16
-13z"/>
<path d="M190 365 c0 -69 3 -85 15 -85 12 0 15 14 16 63 l1 62 20 -47 c13 -30
27 -48 37 -48 11 0 25 18 39 48 l21 47 -2 -63 c-2 -53 0 -62 16 -62 15 0 17
11 17 85 0 83 0 85 -24 85 -20 0 -27 -8 -41 -50 -9 -27 -20 -50 -25 -50 -4 0
-16 23 -26 50 -14 40 -22 50 -41 50 -22 0 -23 -3 -23 -85z"/>
<path d="M1350 364 l0 -85 53 3 c60 3 70 21 15 26 l-38 3 0 70 c0 55 -3 69
-15 69 -12 0 -15 -16 -15 -86z"/>
<path d="M1210 421 c0 -11 -6 -22 -12 -24 -10 -4 -10 -7 -1 -14 6 -5 13 -29
15 -53 2 -38 7 -46 26 -48 12 -2 22 1 22 7 0 6 -4 11 -10 11 -5 0 -10 18 -10
40 0 29 4 40 15 40 8 0 15 5 15 10 0 6 -7 10 -15 10 -8 0 -15 9 -15 20 0 11
-7 20 -15 20 -8 0 -15 -9 -15 -19z"/>
<path d="M1670 421 c0 -11 -6 -22 -12 -24 -10 -4 -10 -7 -1 -14 6 -5 13 -29
15 -53 3 -41 6 -45 31 -48 29 -4 37 12 12 22 -9 3 -15 19 -15 41 0 24 4 35 15
35 8 0 15 4 15 9 0 5 -7 11 -15 15 -8 3 -15 12 -15 21 0 8 -7 15 -15 15 -8 0
-15 -9 -15 -19z"/>
<path d="M786 401 c-3 -5 -15 -7 -26 -4 -18 5 -20 0 -20 -56 0 -48 3 -61 15
-61 11 0 15 11 15 38 0 45 13 67 34 59 11 -5 16 -19 16 -52 0 -33 4 -45 14
-45 11 0 16 14 18 48 3 39 6 47 23 47 17 0 20 -8 23 -47 2 -34 7 -48 18 -48
20 0 19 93 -2 114 -18 19 -36 20 -51 5 -8 -8 -17 -8 -31 0 -25 13 -39 14 -46
2z"/>
<path d="M979 390 l-24 -20 38 6 c29 5 37 3 37 -9 0 -10 -11 -17 -32 -19 -29
-3 -33 -6 -33 -33 0 -29 2 -30 48 -32 l47 -2 0 54 c0 43 -4 56 -19 65 -27 14
-35 13 -62 -10z m51 -65 c0 -16 -27 -32 -37 -22 -3 4 -3 13 0 22 8 20 37 20
37 0z"/>
<path d="M1146 401 c-3 -5 -15 -7 -26 -4 -18 5 -20 0 -20 -56 0 -48 3 -61 15
-61 11 0 15 12 15 46 0 37 4 47 20 51 11 3 20 12 20 19 0 16 -16 19 -24 5z"/>
<path d="M1552 398 c-23 -23 -13 -48 24 -64 28 -12 34 -18 25 -27 -9 -9 -16
-9 -31 1 -12 7 -21 8 -25 2 -11 -18 5 -30 39 -30 61 0 74 49 19 72 -37 16 -36
15 -29 27 5 7 13 7 26 -1 24 -15 37 -4 20 17 -15 18 -51 20 -68 3z"/>
<path d="M415 335 c21 -56 22 -66 9 -79 -18 -18 -18 -26 -1 -26 21 0 41 29 65
93 26 69 27 77 8 77 -9 0 -20 -19 -28 -47 l-14 -48 -13 48 c-10 34 -19 47 -32
47 -18 0 -17 -4 6 -65z"/>
<path d="M1480 340 c0 -47 3 -60 15 -60 12 0 15 13 15 60 0 47 -3 60 -15 60
-12 0 -15 -13 -15 -60z"/>
</g>
</svg>
